<svg xmlns="http://www.w3.org/2000/svg" xmlns:xlink="http://www.w3.org/1999/xlink" viewBox="0 0 466.07 179.81"><defs><style>.cls-1{fill:#fff;}.cls-2{fill:url(#Degradado_sin_nombre_20);}.cls-3{fill:#1c1933;}.cls-4{fill:url(#Degradado_sin_nombre_20-2);}.cls-5{fill:#00fcba;}.cls-6{fill:url(#Degradado_sin_nombre_23);}</style><linearGradient id="Degradado_sin_nombre_20" x1="432.13" y1="138.21" x2="445.36" y2="138.21" gradientUnits="userSpaceOnUse"><stop offset="0" stop-color="#00befc"/><stop offset="0.21" stop-color="#00d3e6"/><stop offset="0.51" stop-color="#00ebcd"/><stop offset="0.78" stop-color="#00f9bd"/><stop offset="1" stop-color="#00feb8"/></linearGradient><linearGradient id="Degradado_sin_nombre_20-2" x1="84.51" y1="145.15" x2="93.48" y2="58.48" xlink:href="#Degradado_sin_nombre_20"/><linearGradient id="Degradado_sin_nombre_23" x1="38.74" y1="154.03" x2="38.74" y2="71.98" gradientUnits="userSpaceOnUse"><stop offset="0" stop-color="#00befc"/><stop offset="0.24" stop-color="#00d7e1"/><stop offset="0.52" stop-color="#00eccb"/><stop offset="0.77" stop-color="#00fabd"/><stop offset="1" stop-color="#00feb8"/></linearGradient></defs><title>Wintatech</title><g id="Capa_2" data-name="Capa 2"><g id="Capa_1-2" data-name="Capa 1"><rect class="cls-1" width="466.07" height="179.81"/><path class="cls-2" d="M445.35,138.6a6.72,6.72,0,0,1-6.81,6.18,6.31,6.31,0,0,1-6.41-6.46,6.61,6.61,0,0,1,7.09-6.66A7,7,0,0,1,445.35,138.6Z"/><path class="cls-3" d="M121.61,103.26a5.44,5.44,0,0,0-4.11-1.7,5.26,5.26,0,0,0-4,1.7,7.24,7.24,0,0,0-1.54,5v32.28a7.51,7.51,0,0,0,1.54,5.08,5.16,5.16,0,0,0,4,1.78,5.37,5.37,0,0,0,4.11-1.74,7.29,7.29,0,0,0,1.6-5.12V108A6.57,6.57,0,0,0,121.61,103.26Z"/><path class="cls-3" d="M145.12,107.81v1.36a19.7,19.7,0,0,1,6.51-5.77,17.39,17.39,0,0,1,8.12-1.84,16.14,16.14,0,0,1,8,2A12.27,12.27,0,0,1,173,109a13,13,0,0,1,1.45,4.47,46.24,46.24,0,0,1,.33,6.11v21a7.46,7.46,0,0,1-1.55,5.12,5.56,5.56,0,0,1-8.12,0,7.41,7.41,0,0,1-1.57-5.08V121.77q0-5.58-1.55-8.53t-6.18-2.95a9.16,9.16,0,0,0-5.5,1.79,10.36,10.36,0,0,0-3.63,4.94c-.56,1.68-.83,4.82-.83,9.42v14.14a7.31,7.31,0,0,1-1.59,5.14,5.33,5.33,0,0,1-4.11,1.72,5.08,5.08,0,0,1-4-1.78,7.41,7.41,0,0,1-1.57-5.08V108a7.07,7.07,0,0,1,1.4-4.81,4.85,4.85,0,0,1,3.84-1.6,5.2,5.2,0,0,1,2.69.71,5,5,0,0,1,1.92,2.1A7.38,7.38,0,0,1,145.12,107.81Z"/><path class="cls-3" d="M186.61,102.56h1.24V95.78c0-1.82.05-3.25.15-4.28a6.21,6.21,0,0,1,.8-2.66A5,5,0,0,1,190.7,87a5.33,5.33,0,0,1,2.77-.73,5.61,5.61,0,0,1,3.89,1.61,4.77,4.77,0,0,1,1.46,2.63,23.51,23.51,0,0,1,.31,4.4v7.69h4.14a5.27,5.27,0,0,1,3.65,1.13,3.76,3.76,0,0,1,1.26,2.92,3.26,3.26,0,0,1-1.79,3.18,11.64,11.64,0,0,1-5.15.91h-2.11v20.74a34.56,34.56,0,0,0,.19,4.08,4.08,4.08,0,0,0,1,2.31,3.41,3.41,0,0,0,2.63.89,14.32,14.32,0,0,0,2.68-.35,13.45,13.45,0,0,1,2.65-.35,3.39,3.39,0,0,1,2.46,1.09,3.67,3.67,0,0,1,1.09,2.71q0,2.73-3,4.17t-8.56,1.45q-5.29,0-8-1.78a8.19,8.19,0,0,1-3.57-4.92,33.08,33.08,0,0,1-.85-8.39V110.7h-1.49a5.4,5.4,0,0,1-3.72-1.16,3.79,3.79,0,0,1-1.28-2.93,3.65,3.65,0,0,1,1.35-2.92A5.85,5.85,0,0,1,186.61,102.56Z"/><path class="cls-3" d="M244.47,141.08a35.16,35.16,0,0,1-7.91,4.77,22.16,22.16,0,0,1-8.58,1.59,16.16,16.16,0,0,1-7.62-1.72,12.6,12.6,0,0,1-5.07-4.64,12.12,12.12,0,0,1-1.77-6.37,11.35,11.35,0,0,1,2.93-7.89,14.63,14.63,0,0,1,8.06-4.38c.72-.17,2.49-.54,5.33-1.12s5.27-1.11,7.29-1.59,4.23-1.07,6.6-1.76c-.14-3-.74-5.16-1.8-6.55s-3.26-2.09-6.59-2.09a13.73,13.73,0,0,0-6.47,1.2,10.45,10.45,0,0,0-3.72,3.6,36.35,36.35,0,0,1-2.19,3.16c-.43.51-1.34.76-2.75.76a4.79,4.79,0,0,1-3.29-1.22,4,4,0,0,1-1.38-3.12,9.5,9.5,0,0,1,2.11-5.78,15,15,0,0,1,6.57-4.63,29.63,29.63,0,0,1,11.12-1.82q7.44,0,11.69,1.76a10.89,10.89,0,0,1,6,5.56,24.29,24.29,0,0,1,1.75,10.08c0,2.65,0,4.89,0,6.74s0,3.9-.06,6.16a22.75,22.75,0,0,0,1.05,6.63,20.62,20.62,0,0,1,1.06,4.44A4.17,4.17,0,0,1,255.2,146a5.5,5.5,0,0,1-3.7,1.43,5,5,0,0,1-3.43-1.63A24.54,24.54,0,0,1,244.47,141.08Zm-.74-16.33a55.64,55.64,0,0,1-7.22,1.92c-3.15.68-5.33,1.17-6.55,1.49a9,9,0,0,0-3.47,1.86,4.76,4.76,0,0,0-1.65,3.86,5.72,5.72,0,0,0,1.94,4.36,7.19,7.19,0,0,0,5.08,1.8,13.17,13.17,0,0,0,6.18-1.47,9.69,9.69,0,0,0,4.16-3.78q1.53-2.56,1.53-8.43Z"/><path class="cls-3" d="M264.76,102.56H266V95.78c0-1.82.05-3.25.15-4.28a6.21,6.21,0,0,1,.8-2.66,5,5,0,0,1,1.9-1.88,5.33,5.33,0,0,1,2.77-.73,5.61,5.61,0,0,1,3.89,1.61A4.77,4.77,0,0,1,277,90.47a23.51,23.51,0,0,1,.31,4.4v7.69h4.14a5.3,5.3,0,0,1,3.66,1.13,3.76,3.76,0,0,1,1.26,2.92,3.27,3.27,0,0,1-1.8,3.18,11.64,11.64,0,0,1-5.15.91h-2.11v20.74a34.56,34.56,0,0,0,.19,4.08,4.15,4.15,0,0,0,1,2.31,3.41,3.41,0,0,0,2.63.89,14.32,14.32,0,0,0,2.68-.35,13.45,13.45,0,0,1,2.65-.35,3.39,3.39,0,0,1,2.46,1.09,3.67,3.67,0,0,1,1.09,2.71q0,2.73-3,4.17t-8.56,1.45q-5.29,0-8-1.78a8.23,8.23,0,0,1-3.57-4.92,33.08,33.08,0,0,1-.85-8.39V110.7h-1.49a5.4,5.4,0,0,1-3.72-1.16,3.79,3.79,0,0,1-1.28-2.93,3.65,3.65,0,0,1,1.35-2.92A5.85,5.85,0,0,1,264.76,102.56Z"/><path class="cls-3" d="M325.6,127.27H303.53a15,15,0,0,0,1.55,6.78A10.38,10.38,0,0,0,314.6,140a13.37,13.37,0,0,0,3.7-.48,12,12,0,0,0,3.25-1.48,25.93,25.93,0,0,0,2.89-2.17q1.32-1.16,3.43-3.15a3.75,3.75,0,0,1,2.48-.74,4.1,4.1,0,0,1,2.81.95,3.4,3.4,0,0,1,1.07,2.69,7.28,7.28,0,0,1-1.19,3.57,14.12,14.12,0,0,1-3.62,3.93,20.75,20.75,0,0,1-6.08,3.12,26,26,0,0,1-8.41,1.24q-10.86,0-16.9-6.2t-6-16.82a27.87,27.87,0,0,1,1.49-9.28,20.34,20.34,0,0,1,4.33-7.33,19,19,0,0,1,7-4.7,25.39,25.39,0,0,1,9.26-1.63,21.92,21.92,0,0,1,11.34,2.79,18.37,18.37,0,0,1,7.09,7.21,19,19,0,0,1,2.36,9c0,2.84-.82,4.68-2.44,5.52A15.21,15.21,0,0,1,325.6,127.27Zm-22.07-6.4H324q-.42-5.79-3.12-8.66a9.35,9.35,0,0,0-7.13-2.88,9.07,9.07,0,0,0-6.93,2.92C305,114.19,303.91,117.06,303.53,120.87Z"/><path class="cls-3" d="M384.86,133.47A9.75,9.75,0,0,1,383.6,138a15.49,15.49,0,0,1-3.84,4.56,19.73,19.73,0,0,1-6.51,3.49,27.42,27.42,0,0,1-8.85,1.33q-10.45,0-16.32-6.1t-5.87-16.34a26.94,26.94,0,0,1,2.69-12.28,19.35,19.35,0,0,1,7.77-8.25,26.45,26.45,0,0,1,20.19-1.63,21.19,21.19,0,0,1,6.2,3.31,16,16,0,0,1,3.88,4.32,8.49,8.49,0,0,1,1.34,4.28,4.53,4.53,0,0,1-1.5,3.43,5.22,5.22,0,0,1-3.66,1.4,3.71,3.71,0,0,1-2.34-.72,11.26,11.26,0,0,1-2.08-2.34,17.24,17.24,0,0,0-4.32-4.71,10.62,10.62,0,0,0-13.79,2.34q-3,3.9-3,10.68a20.8,20.8,0,0,0,.78,5.85,13.26,13.26,0,0,0,2.27,4.54,9.75,9.75,0,0,0,3.6,2.86,11.06,11.06,0,0,0,4.63,1,10.45,10.45,0,0,0,5.8-1.57,13.71,13.71,0,0,0,4.28-4.8,11,11,0,0,1,2.24-3,4.19,4.19,0,0,1,2.93-1.08,4.37,4.37,0,0,1,3.43,1.57A5,5,0,0,1,384.86,133.47Z"/><path class="cls-3" d="M436.84,130.11V119a31.14,31.14,0,0,0-.47-5.78,12.09,12.09,0,0,0-1.87-4.51,14.14,14.14,0,0,0-6.06-5.3,20.56,20.56,0,0,0-8.82-1.82,24.85,24.85,0,0,0-6.17.73,19,19,0,0,0-5.24,2.17,27.57,27.57,0,0,0-4.86,3.92V91.65a7,7,0,0,0-1.74-5.14,6.59,6.59,0,0,0-4.85-1.72A6.41,6.41,0,0,0,392,86.5a7,7,0,0,0-1.7,5.15v48.92c0,4.59,2.15,6.86,6.46,6.86a6.53,6.53,0,0,0,4.85-1.75,6.92,6.92,0,0,0,1.74-5.11V125.66c0-4.29.35-7.29,1.06-9A10.58,10.58,0,0,1,408.6,112a11.75,11.75,0,0,1,6.29-1.72c3.47,0,5.83,1,7.07,2.91s1.87,4.73,1.87,8.33v19c0,4.59,2.16,6.86,6.46,6.86a6.53,6.53,0,0,0,4.76-1.73h0a7.66,7.66,0,0,1-5.43-7.49A8.08,8.08,0,0,1,436.84,130.11Z"/><polygon class="cls-4" points="114.19 69.69 114.1 69.89 81.23 147.45 62.41 147.45 97.58 64.69 97.66 64.51 98.44 62.76 99.33 60.76 100.19 58.83 102.43 59.83 101.58 61.76 103.88 62.78 103.09 64.56 102.99 64.8 102.97 64.8 102.22 66.52 104.15 67.37 103.3 69.29 105.29 70.18 106.16 68.26 108.08 69.11 108.87 67.32 110.73 68.16 109.86 70.07 112.05 71.05 112.92 69.14 113.62 69.44 114.19 69.69"/><polygon class="cls-5" points="105.92 53.35 107.92 54.24 107.07 56.16 108.99 57.02 108.09 59.03 106.17 58.18 105.31 60.1 103.31 59.21 104.17 57.29 102.25 56.43 103.14 54.42 105.07 55.27 105.92 53.35"/><polygon class="cls-5" points="110.82 63.26 109.93 65.27 108 64.41 107.14 66.34 105.27 65.5 105.14 65.45 105.16 65.42 105.99 63.52 104.17 62.71 104.07 62.67 104.08 62.63 104.96 60.65 106.89 61.51 107.43 60.3 107.75 59.59 109.34 60.3 109.75 60.48 108.89 62.41 110.82 63.26"/><polygon class="cls-5" points="117.76 63.38 116.87 65.39 114.95 64.54 114.1 66.46 112.09 65.57 112.95 63.65 111.03 62.8 111.92 60.77 113.84 61.64 114.44 60.3 114.71 59.71 116.02 60.3 116.7 60.61 115.85 62.53 117.76 63.38"/><polygon class="cls-5" points="115.15 53.35 117.15 54.24 116.3 56.16 118.22 57.02 117.32 59.03 115.4 58.18 114.54 60.1 112.54 59.21 113.4 57.29 111.47 56.43 112.37 54.42 114.3 55.27 115.15 53.35"/><polygon class="cls-5" points="114.63 47.75 116.14 48.42 115.49 49.88 116.94 50.52 116.27 52.04 114.81 51.4 114.17 52.85 112.66 52.18 113.31 50.72 111.85 50.08 112.53 48.56 113.98 49.2 114.63 47.75"/><polygon class="cls-5" points="114.98 39.76 116.49 40.43 115.84 41.88 117.3 42.53 116.62 44.05 115.17 43.4 114.52 44.86 113.01 44.18 113.66 42.73 112.21 42.09 112.88 40.56 114.33 41.21 114.98 39.76"/><polygon class="cls-5" points="108.35 46.99 109.86 47.66 109.22 49.11 110.67 49.76 109.99 51.28 108.54 50.63 107.89 52.08 106.38 51.41 107.03 49.96 105.58 49.31 106.25 47.79 107.71 48.44 108.35 46.99"/><polygon class="cls-5" points="120.5 37.62 121.43 38.03 121.03 38.93 121.92 39.32 121.5 40.26 120.61 39.86 120.21 40.76 119.28 40.34 119.68 39.45 118.79 39.05 119.2 38.11 120.1 38.51 120.5 37.62"/><polygon class="cls-5" points="125.15 36.96 125.79 37.25 125.52 37.86 126.13 38.13 125.84 38.77 125.23 38.5 124.96 39.11 124.33 38.83 124.6 38.21 123.98 37.94 124.27 37.3 124.88 37.57 125.15 36.96"/><polygon class="cls-5" points="122.81 32.37 123.31 32.59 123.1 33.08 123.58 33.29 123.36 33.8 122.87 33.58 122.66 34.07 122.15 33.84 122.37 33.36 121.88 33.14 122.11 32.64 122.59 32.85 122.81 32.37"/><polygon class="cls-5" points="120.59 45.45 121.91 46.04 121.32 47.35 122.58 47.92 121.97 49.3 120.7 48.73 120.12 50.05 118.8 49.47 119.39 48.15 118.13 47.59 118.74 46.21 120 46.77 120.59 45.45"/><polygon class="cls-5" points="124.5 41.7 125.54 42.16 125.07 43.2 126.07 43.64 125.58 44.73 124.59 44.29 124.13 45.33 123.09 44.87 123.56 43.83 122.56 43.38 123.04 42.3 124.04 42.74 124.5 41.7"/><path class="cls-6" d="M53.41,104.1l-.9,2.19-9.75,23.94L24.1,84.86H10.66l25.88,62.59H48.92l16.38-39.7.6-1.46.91-2.19Z"/></g></g></svg>